<?xml version="1.0" encoding="UTF-8" standalone="no"?>
<!-- Created with Inkscape (http://www.inkscape.org/) -->

<svg
   xmlns:dc="http://purl.org/dc/elements/1.1/"
   xmlns:cc="http://creativecommons.org/ns#"
   xmlns:rdf="http://www.w3.org/1999/02/22-rdf-syntax-ns#"
   xmlns:svg="http://www.w3.org/2000/svg"
   xmlns="http://www.w3.org/2000/svg"
   version="1.1"
   width="551.03162"
   height="103.96036"
   id="svg2">
  <defs
     id="defs4" />
  <g
     transform="translate(-198.83733,-380.37629)"
     id="layer1">
    <g
       id="text3172"
       style="font-size:93.64426422px;font-style:normal;font-variant:normal;font-weight:bold;font-stretch:normal;text-align:start;line-height:125%;letter-spacing:-0.80000001px;word-spacing:0px;writing-mode:lr-tb;text-anchor:start;fill:#ffa501;fill-opacity:1;stroke:#9f3700;stroke-width:3.5;stroke-miterlimit:4;stroke-opacity:1;font-family:Vollkorn;-inkscape-font-specification:Vollkorn Bold">
      <path
         d="m 266.42803,432.78784 c -4.58857,-7.49154 -9.36444,-14.51487 -15.73224,-22.38098 l 10.01994,-10.39452 c 4.40127,-4.49492 8.52163,-6.74238 13.20384,-7.02332 0.65551,-1.68559 1.03008,-5.15043 1.03008,-7.30425 -2.24746,0.18729 -10.67545,0.28093 -14.32757,0.28093 -3.65212,0 -8.2407,-0.0936 -10.5818,-0.28093 0,2.24746 0.18729,5.24408 0.8428,7.30425 3.37119,0.18729 3.83941,2.80934 -1.96653,8.61528 l -12.64198,12.54833 0,-10.86274 c 0,-8.42797 0.93645,-9.739 6.08688,-10.30087 0.8428,-2.43475 0.8428,-4.77586 0.8428,-7.30425 -3.74577,0.18729 -11.33096,0.28093 -15.82588,0.28093 -4.49492,0 -13.67207,-0.0936 -16.76233,-0.28093 0,2.43475 0.37458,5.43137 0.8428,7.30425 5.24408,0.74916 6.08688,1.8729 6.08688,10.30087 l 0,28.46786 c 0,8.61526 -0.93645,10.11358 -5.99323,10.48816 -0.46822,1.77924 -0.93645,5.05679 -0.93645,7.30425 4.40128,-0.18729 11.23732,-0.28093 17.69877,-0.28093 6.46145,0 12.08011,0.0936 14.88944,0.28093 0,-2.43475 -0.28093,-5.61866 -0.74916,-7.30425 -5.05678,-0.37458 -6.18052,-1.8729 -6.18052,-10.48816 l 0,-10.48816 c 7.39789,8.98984 12.73563,18.82251 17.60512,28.84243 4.68221,-0.6555 19.0098,-0.84279 23.692,-0.84279 0.93645,-1.87289 1.12373,-4.214 1.12373,-7.02332 -4.77585,-0.56187 -8.14705,-2.80934 -12.26739,-9.45807"
         id="path3174"
         style="fill:#ffa501;stroke:#9f3700" />
      <path
         d="m 304.63479,405.53735 c -14.4212,0 -25.93946,7.30427 -25.93946,23.13014 0,13.20383 8.33436,21.44453 25.09666,21.44453 16.29409,0 26.2204,-8.33435 26.2204,-23.03648 0,-12.45468 -8.14707,-21.53819 -25.3776,-21.53819 m -1.40466,6.74239 c 4.58856,0 8.98985,5.71231 8.98985,17.88606 0,7.11695 -2.43476,12.73562 -6.64875,12.73562 -6.08687,0 -9.08349,-8.14706 -9.08349,-17.79241 0,-7.02332 2.15382,-12.82927 6.74239,-12.82927"
         id="path3176"
         style="fill:#ffa501;stroke:#9f3700" />
      <path
         d="m 357.21806,429.69757 c 0,-5.15042 3.09026,-10.20722 5.61865,-10.20722 2.52839,0 3.55848,1.87289 3.65213,5.99323 2.62203,0 7.3979,-0.18729 9.92629,-1.31102 -0.37458,-4.58856 0.18729,-11.61189 0.93644,-15.91952 -2.24746,-1.59195 -4.30764,-2.24746 -6.92967,-2.24746 -5.05679,0 -9.45808,3.27755 -12.17376,7.58518 -0.74915,1.21738 -1.87288,4.49493 -2.71568,6.83603 1.12373,-4.58856 1.6856,-6.92967 1.6856,-8.8962 0,-3.27755 -1.12374,-5.05679 -3.18391,-5.99324 -2.99661,1.49831 -10.7691,3.09027 -20.03987,3.09027 -1.03009,1.96652 -1.21738,4.68221 -1.21738,7.02332 6.08687,0.56186 6.64875,2.24746 6.64875,8.33433 l 0,7.77248 c 0,8.61526 -1.21738,10.11358 -6.27417,10.48816 -0.46822,1.77924 -0.65551,3.93306 -0.65551,7.30425 4.30763,-0.18729 12.17376,-0.28093 18.91614,-0.28093 5.89958,0 13.29749,0.0936 16.85597,0.28093 0,-2.34111 -0.0937,-5.24408 -0.8428,-7.30425 -7.86611,-0.56187 -10.20722,-3.37121 -10.20722,-11.4246 l 0,-1.12374"
         id="path3178"
         style="fill:#ffa501;stroke:#9f3700" />
      <path
         d="m 429.75341,439.53022 c -4.49492,-0.18729 -5.24408,-1.21738 -5.24408,-8.0534 l 0,-6.18053 c 0,-8.89619 -1.96653,-12.64197 -4.30764,-15.07672 -2.99661,-3.27755 -7.86612,-4.68222 -17.88605,-4.68222 -7.95975,0 -14.88944,1.40467 -20.13352,3.3712 0.93645,4.77585 0.93645,8.52163 0.65551,12.08011 2.99662,1.12373 5.80595,1.21737 10.20723,1.21737 0.65551,-6.18051 2.5284,-10.20722 6.74239,-10.20722 1.68559,0 3.65212,0.65551 4.77585,1.96653 1.59195,1.77924 2.15382,4.02671 2.15382,8.24069 -9.45806,1.31102 -28.37421,3.65214 -28.37421,16.48139 0,7.49154 4.96315,11.23732 14.98308,11.23732 4.58857,0 8.14705,-1.31103 11.05002,-3.46484 1.87289,-1.49831 3.3712,-3.74578 4.58857,-6.36781 -0.46822,1.68559 -0.65551,3.37119 -0.65551,4.68221 0,2.52839 0.8428,4.30764 3.55849,5.33772 5.24407,-2.06017 11.05002,-3.09026 16.85596,-3.1839 1.21738,-2.15382 1.49831,-4.68222 1.03009,-7.3979 m -23.03649,-9.739 c 0,6.46145 -4.02671,9.92629 -7.49154,9.92629 -1.96653,0 -3.55848,-0.93644 -3.55848,-3.93306 0,-3.55848 2.90298,-5.99323 11.05002,-7.58518 l 0,1.59195"
         id="path3180"
         style="fill:#ffa501;stroke:#9f3700" />
      <path
         d="m 439.23965,434.09886 c 0,6.27415 -1.12374,7.86611 -6.08688,8.14705 -0.65551,1.77924 -0.8428,4.21399 -0.8428,7.30425 2.24746,-0.18729 9.36444,-0.28093 15.82588,-0.28093 6.46145,0 13.48478,0.0936 15.82588,0.28093 0,-3.09026 -0.18728,-5.52501 -0.74915,-7.30425 -4.96314,-0.28094 -6.18052,-1.8729 -6.18052,-8.14705 l 0,-45.97934 c 0,-3.27754 -1.21738,-5.05679 -3.27755,-5.99323 -2.99661,1.49831 -10.95639,3.09026 -20.22716,3.09026 -1.03009,1.96653 -1.21738,4.68221 -1.21738,7.02332 5.15043,0.56186 6.74239,2.06018 6.92968,5.61866 l 0,36.24033"
         id="path3182"
         style="fill:#ffa501;stroke:#9f3700" />
      <path
         d="m 538.63021,457.32263 c -12.26739,0.56187 -14.23394,-6.08688 -24.44115,-9.739 11.89281,-4.8695 18.91614,-16.38776 18.91614,-31.46447 0,-18.82248 -12.82929,-30.99625 -32.40092,-30.99625 -18.91612,0 -32.30727,12.26741 -32.30727,32.21362 0,19.57163 12.08013,32.77549 32.30727,32.77549 10.76908,1.59196 10.01995,15.45131 19.6653,19.6653 4.96314,-2.3411 11.23731,-4.0267 17.32419,-4.58857 0.65551,-2.06017 1.03008,-5.24408 0.93644,-7.86612 m -51.03613,-42.23356 c 0,-14.70214 4.30765,-22.94285 11.89283,-22.94285 8.98984,0 14.42121,11.61191 14.42121,25.93947 0,15.07671 -4.30764,24.72208 -12.08011,24.72208 -9.92628,0 -14.23393,-12.73563 -14.23393,-27.7187"
         id="path3184"
         style="fill:#ffa501;stroke:#9f3700" />
      <path
         d="m 595.39511,439.53022 c -4.49492,-0.18729 -5.24408,-1.21738 -5.24408,-8.61527 l 0,-19.38436 c 0,-3.27755 -1.12373,-5.05679 -3.1839,-5.99324 -2.99662,1.49831 -10.7691,2.62204 -20.03988,2.62204 -1.03008,1.96653 -1.21737,4.68222 -1.21737,7.02332 5.61865,0.46822 6.64874,2.24747 6.64874,8.33434 l 0,2.71569 c 0,9.64535 -3.74577,14.04664 -7.67883,14.04664 -2.62203,0 -4.0267,-1.96654 -4.0267,-10.39452 l 0,-18.35427 c 0,-3.27755 -1.12373,-5.05679 -3.18391,-5.99324 -2.99661,1.49831 -9.9263,3.09027 -19.19707,3.09027 -1.03009,1.96652 -1.21738,4.68221 -1.21738,7.02332 5.15043,0.56186 5.80595,2.24746 5.80595,8.33433 l 0,8.33434 c 0,13.11019 5.24409,17.60513 14.79579,17.60513 6.18052,0 10.95638,-1.87289 13.39113,-4.02671 1.49831,-1.31102 2.62204,-3.09026 3.55848,-5.80594 -0.37457,1.4983 -0.65551,3.27755 -0.65551,4.68221 0,2.52839 0.84281,4.30764 3.55849,5.33772 5.24407,-2.06017 11.05003,-3.09026 16.85596,-3.1839 1.21738,-2.15382 1.49831,-4.68222 1.03009,-7.3979"
         id="path3186"
         style="fill:#ffa501;stroke:#9f3700" />
      <path
         d="m 643.70568,426.32638 c 0.37457,-10.01992 -6.08689,-20.78903 -20.5081,-20.78903 -14.98306,0 -24.81573,7.67885 -24.81573,23.03649 0,12.26739 6.83605,21.53818 25.47124,21.53818 8.0534,0 14.60851,-2.34111 19.38437,-5.7123 0,-2.71568 -1.12374,-5.61865 -2.5284,-6.46145 -2.71568,2.06017 -7.86612,3.55848 -11.79918,3.55848 -7.02331,0 -10.86273,-3.46484 -12.36104,-9.08349 8.14704,-0.46822 17.13691,-0.56187 24.06658,-0.56187 1.4983,-1.40466 2.62204,-3.37119 3.09026,-5.52501 m -27.81235,-1.03009 c 0.18729,-9.36441 2.62204,-12.82926 6.5551,-12.82926 4.0267,0 5.99323,5.43137 5.99323,12.82926 l -12.54833,0"
         id="path3188"
         style="fill:#ffa501;stroke:#9f3700" />
      <path
         d="m 673.0518,429.69757 c 0,-5.15042 3.09026,-10.20722 5.61865,-10.20722 2.52839,0 3.55848,1.87289 3.65213,5.99323 2.62204,0 7.3979,-0.18729 9.92629,-1.31102 -0.37458,-4.58856 0.18729,-11.61189 0.93644,-15.91952 -2.24746,-1.59195 -4.30764,-2.24746 -6.92967,-2.24746 -5.05679,0 -9.45808,3.27755 -12.17376,7.58518 -0.74915,1.21738 -1.87288,4.49493 -2.71568,6.83603 1.12373,-4.58856 1.6856,-6.92967 1.6856,-8.8962 0,-3.27755 -1.12374,-5.05679 -3.18391,-5.99324 -2.99661,1.49831 -10.7691,3.09027 -20.03987,3.09027 -1.03009,1.96652 -1.21738,4.68221 -1.21738,7.02332 6.08687,0.56186 6.64875,2.24746 6.64875,8.33433 l 0,7.77248 c 0,8.61526 -1.21738,10.11358 -6.27417,10.48816 -0.46822,1.77924 -0.65551,3.93306 -0.65551,7.30425 4.30763,-0.18729 12.17376,-0.28093 18.91614,-0.28093 5.89958,0 13.29749,0.0936 16.85597,0.28093 0,-2.34111 -0.0937,-5.24408 -0.8428,-7.30425 -7.86611,-0.56187 -10.20722,-3.37121 -10.20722,-11.4246 l 0,-1.12374"
         id="path3190"
         style="fill:#ffa501;stroke:#9f3700" />
      <path
         d="m 739.22272,406.38015 c -2.90297,0 -6.5551,-0.0936 -9.45807,-0.28093 0,2.62204 0.37458,5.61866 1.03009,7.30425 3.46483,0.56187 4.30763,2.06018 1.87289,7.95977 l -4.49493,11.4246 c -1.68559,-4.58857 -3.46484,-8.61528 -5.33772,-12.2674 -2.71568,-5.24408 -2.43475,-6.36781 2.15382,-7.11697 0.6555,-1.4983 1.12373,-4.8695 1.12373,-7.30425 -3.83941,0.18729 -10.48817,0.28093 -16.01317,0.28093 -5.24408,0 -10.7691,-0.0936 -14.32757,-0.28093 0,2.24746 0.28093,5.43137 0.93644,7.30425 2.3411,0.46822 3.93306,1.21738 6.27416,5.99324 4.96314,10.11357 11.14368,23.59836 15.91953,34.92931 l -0.46822,0.84279 c -2.06017,3.18391 -3.93307,4.02671 -8.33434,4.02671 -4.68221,0 -8.70892,-0.93645 -10.86274,-1.77924 -1.21737,3.1839 -1.59195,7.67883 -1.21737,10.11358 1.96652,2.90297 6.5551,5.05679 10.67544,5.05679 6.5551,0 11.14368,-2.80935 18.26064,-19.85259 l 13.7657,-32.77549 c 1.96653,-4.49492 3.27755,-5.80594 6.18052,-6.5551 0.8428,-2.06017 1.21738,-5.15043 1.21738,-7.39789 -2.80933,0.28093 -5.80595,0.37457 -8.89621,0.37457"
         id="path3192"
         style="fill:#ffa501;stroke:#9f3700" />
    </g>
    <path
       d="m 227.66022,386.40429 c -0.44529,-0.0214 -0.74684,0.0753 -0.8371,0.34639 -0.71426,2.14514 -4.09892,10.50707 -4.09892,10.50707 0,0 -5.15178,-5.84829 -6.40816,-7.44732 -1.25639,-1.59903 -4.13267,2.77846 -3.40614,4.93602 l 7.79371,6.63908 -2.51131,3.75253 c 0,0 -3.95901,-5.028 -6.2927,-5.13808 0,0 -1.60914,0.36893 -2.04945,3.7814 l 6.26383,6.98547 c 1.16684,1.98143 1.70307,7.50506 1.70307,7.50506 0,0 -3.63437,-3.52908 -6.03291,-4.21438 -2.39855,-0.6853 -2.90856,4.64542 -1.58761,6.49476 l 8.02464,5.88858 2.71336,15.32763 6.23497,-0.28866 -0.69277,-16.51112 10.80019,-6.90036 6.58863,10.51127 -0.0129,0.26175 5.6686,9.21214 -1.43441,12.52634 11.38171,-8.66326 13.54306,7.18621 -4.54076,-12.55408 6.15724,-3.31199 -9.4315,-5.34769 0.69145,-11.77338 -11.58481,11.91465 -12.26055,-15.11224 10.64398,-8.12641 c 5.98385,2.93295 9.95909,7.39661 15.99154,-2.54017 -4.60133,0.11008 -11.97922,-1.21235 -11.97922,-1.21235 0,0 2.22803,-3.13708 2.33811,-5.42674 -3.20573,-4.3077 -6.59592,-7.68651 -12.89517,-4.95326 0.0454,0.96456 5.04373,6.5986 5.04373,6.5986 l -9.8661,8.73943 c 0.0441,-5.6801 1.5891,-10.84275 1.5891,-10.84275 0,0 -0.3925,-3.47262 -2.83626,-2.7461 -1.87136,1.387 -4.06023,8.54124 -4.06023,8.54124 l -3.84894,-2.68152 c 0,0 2.49956,-7.39157 1.90513,-9.43905 0,0 -4.4786,-2.33198 -6.40816,-2.42471 z m 0.40412,19.28222 7.53986,1.42959 -0.0782,3.89537 -10.23269,5.4419 -0.77937,-6.26383 z"
       id="path4038"
       style="fill:#ffffff;fill-opacity:1;stroke:none" />
    <path
       d="m 210.48501,444.69522 c -1.19289,-12.36631 29.60925,-16.43898 27.92857,-4.98431 -2.35329,16.03877 -27.25036,12.01524 -27.92857,4.98431 z"
       id="path4046"
       style="fill:#ffffff;fill-opacity:1;stroke:none" />
    <path
       d="m 228.00661,385.39399 c -1.61361,-0.0115 -2.83766,0.46121 -2.82883,1.58761 0.0359,4.58524 -2.91543,9.26586 -2.91543,9.26586 -3.02115,-2.84078 -3.74995,-5.80597 -6.00404,-7.1298 -1.93638,-1.13724 -4.2337,2.99775 -4.09892,4.90715 0.1406,1.99185 3.42248,5.20457 7.12001,8.49627 l -0.79844,1.37576 c -4.64446,-4.9601 -7.91801,-6.69551 -9.58338,-0.86597 -0.72288,2.53045 5.27266,5.39087 6.55549,7.11503 1.13484,1.52526 1.70007,6.91365 1.70007,6.91365 0,0 -5.8147,-6.47689 -7.30299,-2.45357 -2.354,6.36357 -0.1433,6.37153 7.36072,13.22044 0.26631,1.75455 0.65504,5.57837 1.5061,9.32414 -9.7578,3.97576 -6.92452,11.52618 4.7866,9.92921 -2.1924,-0.4479 -11.27413,-3.23579 -3.5216,-5.369 0.11858,0.26469 0.25016,0.50026 0.37525,0.69277 2.01066,3.09422 6.31909,1.34767 7.10094,0.54845 1.50218,-1.53558 0.92329,-9.45438 0.0577,-17.00184 4.6103,-2.35389 8.78804,-6.70987 8.78804,-6.70987 1.03697,2.0187 4.57049,6.41572 6.75327,8.49498 -1.32254,-0.22293 -1.85739,-0.36469 -2.35172,-0.26142 -3.0224,0.63141 7.34273,10.65526 7.34273,10.65526 0,0 -7.07602,18.52617 -0.57639,15.45656 3.11035,-1.46895 12.32938,-7.82126 12.32938,-7.82126 0,0 13.82475,7.44091 15.79061,7.44091 2.88209,0 -6.66908,-16.15831 -6.66908,-16.15831 0,0 9.02688,-2.77899 7.76485,-4.96489 -1.45953,-2.52797 -9.84317,-5.39786 -9.84317,-5.39786 0,0 2.47631,-13.1031 -0.63504,-13.04725 -0.10037,0.002 -0.20529,0.0276 -0.31753,0.0577 -2.83738,0.76028 -10.44378,9.66782 -12.24676,12.37501 -2.26619,-3.18682 -8.23744,-8.85562 -9.83712,-11.19291 2.27646,-2.13147 6.37902,-6.08372 9.05192,-8.78621 1.952,0.70521 6.30274,3.62181 9.0638,3.17522 3.13701,-0.50741 6.57155,-3.81671 7.56278,-7.24526 0.3101,-1.07258 -6.87322,0.47516 -11.63283,-1.55875 0.78598,-1.04127 1.49188,-2.1045 2.07832,-3.14635 1.39108,-2.47131 -4.91497,-8.35524 -6.32156,-9.41018 -1.84301,-1.38225 -8.08792,0.56948 -9.0022,2.32771 -0.91428,1.75825 5.13421,7.71752 5.13421,7.71752 l -7.80146,7.03487 c 0,0 0.26137,-6.39333 1.91353,-10.01267 1.31472,-2.88012 -3.42601,-4.55666 -5.11392,-4.06435 -1.68791,0.49231 -3.6969,3.90826 -4.1892,8.55 -0.79044,-0.49792 -0.94137,-0.8691 -1.66646,-1.37295 1.78159,-4.34171 2.84863,-8.31557 2.25152,-9.71828 -0.69113,-1.62355 -4.44047,-2.95399 -7.1298,-2.97316 z m 1.55874,2.82883 c 1.23016,0.0888 2.54017,1.03916 2.54017,1.03916 0,0.9608 -1.05795,3.67364 -2.51131,6.89888 -0.22817,-0.0228 -0.47245,-0.0288 -0.7505,-0.0288 -5.37051,0 -5.37991,6.14896 -3.52161,8.68854 -1.16555,2.15598 -2.28794,4.08607 -3.17521,5.36901 0,0 5.32811,29.71174 3.34841,29.21198 -1.77864,-0.449 -3.36061,-7.93092 -4.6185,-15.38536 -0.94843,2.14726 -7.33186,-2.74224 -7.33186,-2.74224 0.90662,-1.62236 1.12458,-3.01261 0.98143,-4.30097 0,0 4.57423,2.61613 5.94631,4.58963 -0.91995,-5.73757 -1.64044,-10.99927 -2.04945,-12.41221 2.25459,-4.59936 3.03378,-6.15935 3.03378,-6.15935 1.3568,-0.29265 2.13875,-1.35334 2.41627,-2.45841 -1.50847,-0.16042 -6.38438,-3.88509 -7.68021,-5.87472 0.57317,-0.66132 0.97224,-1.22208 1.27286,-1.99173 1.88829,1.9903 5.35148,5.15832 6.43344,6.87948 0.0173,-0.53229 0.21421,-0.9229 0.066,-1.59512 0,0 3.99438,-7.39368 4.4453,-9.46791 0.33819,-0.22546 0.74457,-0.28939 1.15463,-0.25979 z m -13.02589,2.677 c 1.11392,0.9428 -2.18088,4.90323 -2.82883,3.46387 -0.74069,-1.64537 1.50657,-4.58301 2.82883,-3.46387 z m 35.45445,1.42192 c 0.37222,-0.007 0.77966,-0.007 1.24122,0 2.60219,1.75823 3.47121,2.61307 3.75253,4.30097 -4.20164,4.59002 -9.92467,9.74794 -14.67147,14.19354 -0.43004,-1.47451 -0.57843,-2.69259 -0.60618,-3.6948 3.15492,-2.94821 8.00328,-6.71424 11.52512,-10.84513 -2.73244,-2.12428 -6.82444,-3.84923 -1.24122,-3.95458 z m -11.2039,0.69383 c 0.84119,0.0211 1.52254,0.53896 1.24122,1.55874 -3.12707,11.52416 -3.24508,18.47446 6.20518,29.46645 1.33255,2.08001 -3.63115,0.56805 -4.6993,-1.12947 -1.09499,-1.74018 -4.74249,-5.62673 -5.66627,-8.25592 -3.64829,2.86302 -6.08928,5.12883 -10.99004,7.13814 l -0.23092,-4.07005 c 4.41561,-1.7967 6.56517,-3.71862 10.23953,-6.53196 -0.40873,-1.94774 -0.598,-4.07894 -0.51958,-6.37929 -2.62765,-0.0598 -4.87049,-1.57928 -4.87049,-1.57928 0.62488,-0.7719 0.93419,-1.56092 0.95257,-2.42471 0,0 1.74936,0.97344 4.09116,1.75247 0.26293,-2.27463 1.10809,-5.55052 2.05316,-8.13071 0.35157,-0.95984 1.3526,-1.43551 2.19378,-1.41441 z m -11.79513,4.65166 c 3.70219,0.75624 0.61636,7.04716 -1.30044,6.51975 -2.75311,-0.75752 -2.09898,-7.21414 1.30044,-6.51975 z m -16.4025,3.42965 c 1.59692,-0.0849 5.05004,4.3358 3.66593,4.24324 -2.7004,-0.18058 -4.68072,-1.34529 -4.38757,-3.34841 0.089,-0.60814 0.35312,-0.87524 0.72164,-0.89483 z m 47.22411,2.13605 c 2.78648,0.25332 4.60844,0.52017 6.81228,0.31752 -2.30517,4.25571 -10.00407,3.38091 -6.81228,-0.31752 z m -31.11711,3.5216 c 1.90682,0.70643 2.2931,1.40949 5.56331,1.95453 l 0.14433,2.19379 -8.19008,4.85775 c -0.20094,-1.57088 -0.3531,-2.93687 -0.40412,-3.6948 0.93428,-1.6146 1.91777,-3.43229 2.88656,-5.31127 z m -16.07814,8.11124 c 2.60149,0.91341 0.21565,7.72874 -1.38555,5.83085 -1.54132,-1.82691 -0.82413,-6.60669 1.38555,-5.83085 z m 52.4335,3.2454 -2.62677,11.34417 c 0,0 9.01651,3.4056 9.26586,3.72367 -0.69158,0 -5.25354,2.62676 -5.25354,2.62676 l 3.18521,10.24842 -11.35417,-8.02576 -8.79382,9.51922 2.29906,-10.76045 -6.02283,-7.24896 11.01658,-0.0829 z m -3.29068,7.21639 -3.66593,6.09064 -5.54219,0.51958 3.75253,2.25152 -2.0206,4.32984 c 0.11828,-0.0591 4.41644,-4.09891 4.41644,-4.09891 l 4.04118,3.05975 -1.93399,-3.92572 5.16694,-0.60618 c 0,0 -5.42744,-1.23769 -5.39787,-1.38555 0.0296,-0.14785 1.18349,-6.23497 1.18349,-6.23497 z m -32.71717,8.43953 c 0.17186,1.57127 0.2948,2.33553 0.1721,3.93136 0,0 9.33131,1.19148 3.95459,9.12153 4.72374,-3.03598 6.93877,-11.66976 -4.12669,-13.05289 z m -10e-4,5.25918 c 0.0218,1.67562 -0.54845,3.49274 -0.54845,3.49274 2.497,1.20405 -1.04613,3.58929 -3.11748,3.78139 7.17098,2.4555 9.82518,-6.60508 3.66593,-7.27413 z"
       id="path3969"
       style="fill:#9f3700;fill-opacity:1;stroke:none" />
  </g>
</svg>
